<svg xmlns="http://www.w3.org/2000/svg" xmlns:xlink="http://www.w3.org/1999/xlink" viewBox="0 0 500 500"><defs><clipPath id="freepik--clip-path--inject-353"><rect x="34.57" y="250.32" width="64.74" height="189.38" style="fill:none"></rect></clipPath><clipPath id="freepik--clip-path-2--inject-353"><rect x="219.17" y="222.51" width="104.64" height="199.94" style="fill:none"></rect></clipPath></defs><g id="freepik--Device--inject-353"><path d="M110.23,209.2h309.2a10.46,10.46,0,0,1,10.46,10.46V423.48a0,0,0,0,1,0,0H99.77a0,0,0,0,1,0,0V219.66A10.46,10.46,0,0,1,110.23,209.2Z" style="fill:none;stroke:#263238;stroke-linecap:round;stroke-linejoin:round"></path><rect x="113.16" y="225.94" width="303.33" height="171.42" style="fill:none;stroke:#263238;stroke-linecap:round;stroke-linejoin:round"></rect><rect x="152.15" y="413.16" width="226.87" height="11.18" style="fill:#263238;stroke:#263238;stroke-linecap:round;stroke-linejoin:round"></rect><rect x="152.15" y="418.54" width="226.87" height="5.8" style="fill:#fff;stroke:#263238;stroke-linecap:round;stroke-linejoin:round"></rect><path d="M73.07,431s3.73,4.56,14.91,8.28H443.19s8.28-2.07,12-7.86Z" style="fill:#263238;stroke:#263238;stroke-linecap:round;stroke-linejoin:round"></path><rect x="72.32" y="422.81" width="383.68" height="8.7" rx="1.89" style="fill:#fff;stroke:#263238;stroke-linecap:round;stroke-linejoin:round"></rect><path d="M267.65,215.68a2.9,2.9,0,1,0-2.89,2.9A2.89,2.89,0,0,0,267.65,215.68Z" style="fill:#fff;stroke:#263238;stroke-linecap:round;stroke-linejoin:round"></path><path d="M102.88,269.5h0a.83.83,0,0,1-.83-.82v-24a.83.83,0,0,1,.83-.82h0a.83.83,0,0,1,.83.82v24A.83.83,0,0,1,102.88,269.5Z" style="fill:#263238;stroke:#fff;stroke-miterlimit:10;stroke-width:0.691688px"></path><line x1="334.12" y1="225.94" x2="334.12" y2="397.3" style="fill:none;stroke:#263238;stroke-linecap:round;stroke-linejoin:round"></line><line x1="338.37" y1="225.94" x2="338.37" y2="397.3" style="fill:none;stroke:#263238;stroke-linecap:round;stroke-linejoin:round"></line><line x1="113.33" y1="385.98" x2="334.12" y2="385.98" style="fill:none;stroke:#263238;stroke-linecap:round;stroke-linejoin:round"></line><line x1="123.06" y1="364.64" x2="197.74" y2="364.64" style="fill:none;stroke:#263238;stroke-linecap:round;stroke-linejoin:round"></line><line x1="123.06" y1="357.53" x2="197.74" y2="357.53" style="fill:none;stroke:#263238;stroke-linecap:round;stroke-linejoin:round"></line><line x1="123.06" y1="350.42" x2="197.74" y2="350.42" style="fill:none;stroke:#263238;stroke-linecap:round;stroke-linejoin:round"></line><line x1="123.06" y1="343.31" x2="197.74" y2="343.31" style="fill:none;stroke:#263238;stroke-linecap:round;stroke-linejoin:round"></line><line x1="123.06" y1="336.19" x2="197.74" y2="336.19" style="fill:none;stroke:#263238;stroke-linecap:round;stroke-linejoin:round"></line><line x1="123.06" y1="315.45" x2="197.74" y2="315.45" style="fill:none;stroke:#263238;stroke-linecap:round;stroke-linejoin:round"></line><line x1="123.06" y1="308.34" x2="197.74" y2="308.34" style="fill:none;stroke:#263238;stroke-linecap:round;stroke-linejoin:round"></line><line x1="123.06" y1="301.23" x2="197.74" y2="301.23" style="fill:none;stroke:#263238;stroke-linecap:round;stroke-linejoin:round"></line><line x1="123.06" y1="294.12" x2="197.74" y2="294.12" style="fill:none;stroke:#263238;stroke-linecap:round;stroke-linejoin:round"></line><line x1="123.06" y1="287" x2="197.74" y2="287" style="fill:none;stroke:#263238;stroke-linecap:round;stroke-linejoin:round"></line><path d="M379.34,242.18a1,1,0,0,0-1,1l-.06,1.3H362.14l-.95,22.63h31l.71-17.15.24-5.48.1-2.26Z" style="fill:#0ECF59;stroke:#263238;stroke-linecap:round;stroke-linejoin:round"></path><polygon points="392.19 267.07 392.05 246.02 362.26 246.02 362.5 266.82 392.19 267.07" style="fill:#fff;stroke:#263238;stroke-linecap:round;stroke-linejoin:round"></polygon><polygon points="392.19 267.07 390.83 246.02 361.04 246.02 361.28 266.82 392.19 267.07" style="fill:#fff;stroke:#263238;stroke-linecap:round;stroke-linejoin:round"></polygon><polygon points="361.19 267.07 357.05 245.37 388.24 245.37 392.19 267.07 361.19 267.07" style="fill:#0ECF59;stroke:#263238;stroke-linecap:round;stroke-linejoin:round"></polygon><path d="M379.34,280.42a1,1,0,0,0-1,.95l-.06,1.31H362.14l-.95,22.63h31l.71-17.16.24-5.47.1-2.26Z" style="fill:#0ECF59;stroke:#263238;stroke-linecap:round;stroke-linejoin:round"></path><polygon points="392.19 305.31 392.05 284.26 362.26 284.26 362.5 305.05 392.19 305.31" style="fill:#fff;stroke:#263238;stroke-linecap:round;stroke-linejoin:round"></polygon><polygon points="392.19 305.31 390.83 284.26 361.04 284.26 361.28 305.05 392.19 305.31" style="fill:#fff;stroke:#263238;stroke-linecap:round;stroke-linejoin:round"></polygon><polygon points="361.19 305.31 357.05 283.6 388.24 283.6 392.19 305.31 361.19 305.31" style="fill:#0ECF59;stroke:#263238;stroke-linecap:round;stroke-linejoin:round"></polygon><path d="M379.34,318.65a1,1,0,0,0-1,1l-.06,1.3H362.14l-.95,22.63h31l.71-17.15.24-5.48.1-2.26Z" style="fill:#0ECF59;stroke:#263238;stroke-linecap:round;stroke-linejoin:round"></path><polygon points="392.19 343.54 392.05 322.49 362.26 322.49 362.5 343.29 392.19 343.54" style="fill:#fff;stroke:#263238;stroke-linecap:round;stroke-linejoin:round"></polygon><polygon points="392.19 343.54 390.83 322.49 361.04 322.49 361.28 343.29 392.19 343.54" style="fill:#fff;stroke:#263238;stroke-linecap:round;stroke-linejoin:round"></polygon><polygon points="361.19 343.54 357.05 321.83 388.24 321.83 392.19 343.54 361.19 343.54" style="fill:#0ECF59;stroke:#263238;stroke-linecap:round;stroke-linejoin:round"></polygon><path d="M379.34,356.89a1,1,0,0,0-1,.95l-.06,1.31H362.14l-.95,22.63h31l.71-17.16.24-5.47.1-2.26Z" style="fill:#0ECF59;stroke:#263238;stroke-linecap:round;stroke-linejoin:round"></path><polygon points="392.19 381.78 392.05 360.73 362.26 360.73 362.5 381.52 392.19 381.78" style="fill:#fff;stroke:#263238;stroke-linecap:round;stroke-linejoin:round"></polygon><polygon points="392.19 381.78 390.83 360.73 361.04 360.73 361.28 381.52 392.19 381.78" style="fill:#fff;stroke:#263238;stroke-linecap:round;stroke-linejoin:round"></polygon><polygon points="361.19 381.78 357.05 360.07 388.24 360.07 392.19 381.78 361.19 381.78" style="fill:#0ECF59;stroke:#263238;stroke-linecap:round;stroke-linejoin:round"></polygon></g></svg>